<svg id="Layer_1" data-name="Layer 1" xmlns="http://www.w3.org/2000/svg" xmlns:xlink="http://www.w3.org/1999/xlink" viewBox="0 0 1186.82 677.65"><defs><style>.cls-1,.cls-10,.cls-2,.cls-3,.cls-4,.cls-5,.cls-6,.cls-7,.cls-8,.cls-9{opacity:0.4;isolation:isolate;}.cls-1{fill:url(#linear-gradient);}.cls-2{fill:url(#linear-gradient-2);}.cls-3{fill:url(#linear-gradient-3);}.cls-4{fill:url(#linear-gradient-4);}.cls-5{fill:url(#linear-gradient-5);}.cls-6{fill:url(#linear-gradient-6);}.cls-7{fill:url(#linear-gradient-7);}.cls-8{fill:url(#linear-gradient-8);}.cls-9{fill:url(#linear-gradient-9);}.cls-10{fill:url(#linear-gradient-10);}</style><linearGradient id="linear-gradient" x1="-446.59" y1="954.65" x2="-445.53" y2="954.65" gradientTransform="matrix(1015.21, 133.88, 70.54, -534.89, 385999.64, 570896.99)" gradientUnits="userSpaceOnUse"><stop offset="0" stop-color="#fad390"/><stop offset="1" stop-color="#f8c291"/></linearGradient><linearGradient id="linear-gradient-2" x1="-446.59" y1="954.57" x2="-445.53" y2="954.57" gradientTransform="matrix(1015.21, 133.88, 64.5, -489.08, 391774.24, 527108.82)" xlink:href="#linear-gradient"/><linearGradient id="linear-gradient-3" x1="-446.59" y1="954.61" x2="-445.53" y2="954.61" gradientTransform="matrix(1015.21, 133.88, 67.7, -513.39, 388710.27, 550342.56)" xlink:href="#linear-gradient"/><linearGradient id="linear-gradient-4" x1="-446.59" y1="954.68" x2="-445.53" y2="954.68" gradientTransform="matrix(1015.21, 133.88, 73.65, -558.47, 383026.43, 593442.58)" xlink:href="#linear-gradient"/><linearGradient id="linear-gradient-5" x1="-446.59" y1="954.6" x2="-445.53" y2="954.6" gradientTransform="matrix(1015.21, 133.88, 66.66, -505.45, 389710.97, 542754.39)" xlink:href="#linear-gradient"/><linearGradient id="linear-gradient-6" x1="-446.63" y1="953.39" x2="-445.57" y2="953.39" gradientTransform="matrix(-1015.21, -133.88, -73.01, 553.66, -382730.85, -587433.39)" gradientUnits="userSpaceOnUse"><stop offset="0" stop-color="#f8c291"/><stop offset="1" stop-color="#fad390"/></linearGradient><linearGradient id="linear-gradient-7" x1="-446.63" y1="953.38" x2="-445.57" y2="953.38" gradientTransform="matrix(-1015.21, -133.88, -72.59, 550.44, -383137.03, -584353.39)" xlink:href="#linear-gradient-6"/><linearGradient id="linear-gradient-8" x1="-446.63" y1="953.37" x2="-445.57" y2="953.37" gradientTransform="matrix(-1015.21, -133.88, -72.1, 546.76, -383601.44, -580831.77)" xlink:href="#linear-gradient-6"/><linearGradient id="linear-gradient-9" x1="-446.63" y1="953.35" x2="-445.57" y2="953.35" gradientTransform="matrix(-1015.21, -133.88, -71.44, 541.69, -384240.08, -575989.09)" xlink:href="#linear-gradient-6"/><linearGradient id="linear-gradient-10" x1="-446.63" y1="953.3" x2="-445.57" y2="953.3" gradientTransform="matrix(-1015.21, -133.88, -69.62, 527.91, -385976.64, -562820.91)" xlink:href="#linear-gradient-6"/></defs><path class="cls-1" d="M-16.24,240.67-78.66,714a1633.51,1633.51,0,0,0,222.57-23.35A1328.6,1328.6,0,0,1,366,670.68q109.82-.43,224-34t217.66,13.85q103.5,47.38,223.59-31.07l31.19-236.55Z" transform="translate(81.41 -57.19)"/><path class="cls-2" d="M-16.24,240.67l-57,432.55a960,960,0,0,0,218.41,8.2,1243.5,1243.5,0,0,1,219.14,2.66q108.28,11,225-42T807,655.55Q908,722,1030.09,628.3l32.36-245.38Z" transform="translate(81.41 -57.19)"/><path class="cls-3" d="M-16.24,240.67-76.15,694.94a1180.67,1180.67,0,0,0,218.64,6.46,1756.19,1756.19,0,0,0,223.26-28.58q112.61-21.71,221.59-15.94t222.73-24.51q113.73-30.27,218.28,9.15l34.1-258.6Z" transform="translate(81.41 -57.19)"/><path class="cls-4" d="M-16.24,240.67-81.41,734.84q111-9.37,222.94-26.16t223.16-27.79q111.2-11,217.13,17.85t224.42-37.36q118.47-66.23,225.53-45.84l30.68-232.62Z" transform="translate(81.41 -57.19)"/><path class="cls-5" d="M-16.24,240.67l-59,447.25Q35.57,680,147.4,664.17t214.17,40.39q102.33,56.19,222.61-23.73t223.74-32.21q103.46,47.71,221.87-18l32.66-247.67Z" transform="translate(81.41 -57.19)"/><path class="cls-6" d="M1062.45,382.92l43-325.73a2110.86,2110.86,0,0,1-222.2,20.54Q772.9,82,654.31,149.09t-225.47,45.3Q322,172.6,209.8,191t-220.45,7.31l-5.59,42.39Z" transform="translate(81.41 -57.19)"/><path class="cls-7" d="M1062.45,382.92,1105,60.61Q989.1,107,878.33,114.69a1649.47,1649.47,0,0,1-219.59.8Q549.9,108.57,437.38,129.7T212.85,167.87A2209.4,2209.4,0,0,1-9.61,190.44l-6.63,50.23Z" transform="translate(81.41 -57.19)"/><path class="cls-8" d="M1062.45,382.92l42-318.39q-113.87,31.29-226.35,52t-219-4Q552.65,87.79,435.71,142.32T209.45,193.63a1823.34,1823.34,0,0,0-220.41,7l-5.28,40Z" transform="translate(81.41 -57.19)"/><path class="cls-9" d="M1062.45,382.92l41.28-313q-109.41-2.56-222,18.7T653,158.93q-116.21,49-214.3-39.36T214.17,157.86Q87.72,284.57-8.38,181l-7.86,59.63Z" transform="translate(81.41 -57.19)"/><path class="cls-10" d="M1062.45,382.92,1101.8,84.55a1613,1613,0,0,0-222.51,22.91,1610,1610,0,0,1-222.51,22.91q-110.22,3.52-220.8,9.88T211.76,176.18Q98.11,205.77-8,178.58l-8.19,62.09Z" transform="translate(81.41 -57.19)"/></svg>