<svg id="publicdomainvectors.org" xmlns="http://www.w3.org/2000/svg" viewBox="0 0 514.1 499.82"><defs><style>.cls-1{fill:#be5b28;}.cls-2{fill:#82341a;}.cls-3{fill:#8c391d;}.cls-10,.cls-11,.cls-12,.cls-13,.cls-14,.cls-15,.cls-16,.cls-17,.cls-18,.cls-19,.cls-3,.cls-4,.cls-5,.cls-6,.cls-7,.cls-8{fill-rule:evenodd;}.cls-4,.cls-9{fill:#663e17;}.cls-5{fill:#513013;}.cls-6{fill:none;stroke:#94ac3c;stroke-miterlimit:22.93;stroke-width:5.02px;}.cls-7{fill:#82983b;}.cls-8{fill:#94ac3c;}.cls-10{fill:#ca3927;}.cls-11{fill:#b23225;}.cls-12{fill:#f36c3e;}.cls-13{fill:#a7bf39;}.cls-14{fill:#fff;}.cls-15{fill:#febb12;}.cls-16{fill:#5f9941;}.cls-17{fill:#4d873e;}.cls-18{fill:#342e2a;}.cls-19{fill:#4e4542;}</style></defs><rect class="cls-1" y="253.39" width="514.1" height="13.84"/><rect class="cls-2" x="24.07" y="267.23" width="465.96" height="36.92"/><path class="cls-3" d="M96.73,349h25V581.6h-25V349Zm440.94,0h25V581.6h-25Z" transform="translate(-72.67 -81.78)"/><path class="cls-4" d="M415.36,235.32h85.5v81.26a18.64,18.64,0,0,1-18.59,18.59H433.94a18.64,18.64,0,0,1-18.58-18.59Z" transform="translate(-72.67 -81.78)"/><path class="cls-5" d="M481.48,235.32h19.38v81.26a18.64,18.64,0,0,1-18.59,18.59H471.32c5.59,0,10.16-8.36,10.16-18.59Z" transform="translate(-72.67 -81.78)"/><path class="cls-6" d="M427.83,235.32v-.13a16,16,0,0,0-2.18-8.08,13.06,13.06,0,0,0-24.32,6.59V520.26" transform="translate(-72.67 -81.78)"/><path class="cls-6" d="M456,235.32V226a21.85,21.85,0,0,0-1.5-8.08c-2.08-5.16-6.14-7.57-10.11-6s-6.64,6.62-6.64,12.59V552.12" transform="translate(-72.67 -81.78)"/><path class="cls-6" d="M485.9,235.32v-.13a16,16,0,0,1,2.19-8.08,13.06,13.06,0,0,1,24.32,6.59V420.41" transform="translate(-72.67 -81.78)"/><path class="cls-7" d="M371.86,540.94a25.42,25.42,0,0,0,29.38-29.38,25.41,25.41,0,0,0-29.38,29.38Z" transform="translate(-72.67 -81.78)"/><path class="cls-8" d="M430.62,540.94a25.41,25.41,0,0,1-29.38-29.38,25.42,25.42,0,0,1,29.38,29.38Z" transform="translate(-72.67 -81.78)"/><path class="cls-7" d="M371.86,498.08a25.42,25.42,0,0,0,29.38-29.37,25.41,25.41,0,0,0-29.38,29.37Z" transform="translate(-72.67 -81.78)"/><path class="cls-8" d="M430.62,498.08a25.41,25.41,0,0,1-29.38-29.37,25.42,25.42,0,0,1,29.38,29.37Z" transform="translate(-72.67 -81.78)"/><path class="cls-7" d="M371.86,455.23a25.42,25.42,0,0,0,29.38-29.38,25.41,25.41,0,0,0-29.38,29.38Z" transform="translate(-72.67 -81.78)"/><path class="cls-8" d="M430.62,455.23a25.41,25.41,0,0,1-29.38-29.38,25.42,25.42,0,0,1,29.38,29.38Z" transform="translate(-72.67 -81.78)"/><path class="cls-7" d="M371.86,412.38A25.43,25.43,0,0,0,401.24,383a25.41,25.41,0,0,0-29.38,29.38Z" transform="translate(-72.67 -81.78)"/><path class="cls-8" d="M430.62,412.38A25.42,25.42,0,0,1,401.24,383a25.42,25.42,0,0,1,29.38,29.38Z" transform="translate(-72.67 -81.78)"/><path class="cls-7" d="M371.86,369.52a25.42,25.42,0,0,0,29.38-29.38,25.42,25.42,0,0,0-29.38,29.38Z" transform="translate(-72.67 -81.78)"/><path class="cls-8" d="M430.62,369.52a25.41,25.41,0,0,1-29.38-29.38,25.43,25.43,0,0,1,29.38,29.38Z" transform="translate(-72.67 -81.78)"/><path class="cls-7" d="M371.86,326.67a25.42,25.42,0,0,0,29.38-29.38,25.41,25.41,0,0,0-29.38,29.38Z" transform="translate(-72.67 -81.78)"/><path class="cls-8" d="M430.62,326.67a25.41,25.41,0,0,1-29.38-29.38,25.42,25.42,0,0,1,29.38,29.38Z" transform="translate(-72.67 -81.78)"/><path class="cls-7" d="M371.86,283.81a25.42,25.42,0,0,0,29.38-29.37,25.41,25.41,0,0,0-29.38,29.37Z" transform="translate(-72.67 -81.78)"/><path class="cls-8" d="M430.62,283.81a25.41,25.41,0,0,1-29.38-29.37,25.42,25.42,0,0,1,29.38,29.37Z" transform="translate(-72.67 -81.78)"/><path class="cls-7" d="M407.6,573.26A25.41,25.41,0,0,0,437,543.88a25.42,25.42,0,0,0-29.37,29.38Z" transform="translate(-72.67 -81.78)"/><path class="cls-8" d="M466.35,573.26A25.42,25.42,0,0,1,437,543.88a25.42,25.42,0,0,1,29.38,29.38Z" transform="translate(-72.67 -81.78)"/><path class="cls-7" d="M407.6,530.39A25.41,25.41,0,0,0,437,501a25.41,25.41,0,0,0-29.37,29.37Z" transform="translate(-72.67 -81.78)"/><path class="cls-8" d="M466.35,530.39A25.42,25.42,0,0,1,437,501a25.41,25.41,0,0,1,29.38,29.37Z" transform="translate(-72.67 -81.78)"/><path class="cls-7" d="M407.6,487.53A25.42,25.42,0,0,0,437,458.15a25.41,25.41,0,0,0-29.37,29.38Z" transform="translate(-72.67 -81.78)"/><path class="cls-8" d="M466.35,487.53A25.43,25.43,0,0,1,437,458.15a25.41,25.41,0,0,1,29.38,29.38Z" transform="translate(-72.67 -81.78)"/><path class="cls-7" d="M407.6,444.66A25.41,25.41,0,0,0,437,415.28a25.41,25.41,0,0,0-29.37,29.38Z" transform="translate(-72.67 -81.78)"/><path class="cls-8" d="M466.35,444.66A25.42,25.42,0,0,1,437,415.28a25.41,25.41,0,0,1,29.38,29.38Z" transform="translate(-72.67 -81.78)"/><path class="cls-7" d="M407.6,401.79A25.41,25.41,0,0,0,437,372.42a25.41,25.41,0,0,0-29.37,29.37Z" transform="translate(-72.67 -81.78)"/><path class="cls-8" d="M466.35,401.79A25.42,25.42,0,0,1,437,372.42a25.41,25.41,0,0,1,29.38,29.37Z" transform="translate(-72.67 -81.78)"/><path class="cls-7" d="M407.6,358.93A25.42,25.42,0,0,0,437,329.55a25.41,25.41,0,0,0-29.37,29.38Z" transform="translate(-72.67 -81.78)"/><path class="cls-8" d="M466.35,358.93A25.43,25.43,0,0,1,437,329.55a25.41,25.41,0,0,1,29.38,29.38Z" transform="translate(-72.67 -81.78)"/><path class="cls-7" d="M407.6,316.06A25.41,25.41,0,0,0,437,286.68a25.41,25.41,0,0,0-29.37,29.38Z" transform="translate(-72.67 -81.78)"/><path class="cls-8" d="M466.35,316.06A25.42,25.42,0,0,1,437,286.68a25.41,25.41,0,0,1,29.38,29.38Z" transform="translate(-72.67 -81.78)"/><path class="cls-7" d="M407.6,273.19A25.41,25.41,0,0,0,437,243.81a25.42,25.42,0,0,0-29.37,29.38Z" transform="translate(-72.67 -81.78)"/><path class="cls-8" d="M466.35,273.19A25.42,25.42,0,0,1,437,243.81a25.42,25.42,0,0,1,29.38,29.38Z" transform="translate(-72.67 -81.78)"/><path class="cls-7" d="M482.21,449.15a25.42,25.42,0,0,0,29.38-29.38,25.42,25.42,0,0,0-29.38,29.38Z" transform="translate(-72.67 -81.78)"/><path class="cls-8" d="M541,449.15a25.43,25.43,0,0,1-29.38-29.38A25.41,25.41,0,0,1,541,449.15Z" transform="translate(-72.67 -81.78)"/><path class="cls-7" d="M482.21,413.53a25.41,25.41,0,0,0,29.38-29.38,25.43,25.43,0,0,0-29.38,29.38Z" transform="translate(-72.67 -81.78)"/><path class="cls-8" d="M541,413.53a25.42,25.42,0,0,1-29.38-29.38A25.42,25.42,0,0,1,541,413.53Z" transform="translate(-72.67 -81.78)"/><path class="cls-7" d="M482.21,377.91a25.41,25.41,0,0,0,29.38-29.37,25.42,25.42,0,0,0-29.38,29.37Z" transform="translate(-72.67 -81.78)"/><path class="cls-8" d="M541,377.91a25.42,25.42,0,0,1-29.38-29.37A25.41,25.41,0,0,1,541,377.91Z" transform="translate(-72.67 -81.78)"/><path class="cls-7" d="M482.21,342.3a25.41,25.41,0,0,0,29.38-29.38,25.42,25.42,0,0,0-29.38,29.38Z" transform="translate(-72.67 -81.78)"/><path class="cls-8" d="M541,342.3a25.42,25.42,0,0,1-29.38-29.38A25.41,25.41,0,0,1,541,342.3Z" transform="translate(-72.67 -81.78)"/><path class="cls-7" d="M482.21,306.68a25.41,25.41,0,0,0,29.38-29.37,25.42,25.42,0,0,0-29.38,29.37Z" transform="translate(-72.67 -81.78)"/><path class="cls-8" d="M541,306.68a25.42,25.42,0,0,1-29.38-29.37A25.41,25.41,0,0,1,541,306.68Z" transform="translate(-72.67 -81.78)"/><path class="cls-7" d="M482.21,271.07a25.42,25.42,0,0,0,29.38-29.38,25.42,25.42,0,0,0-29.38,29.38Z" transform="translate(-72.67 -81.78)"/><path class="cls-8" d="M541,271.07a25.43,25.43,0,0,1-29.38-29.38A25.41,25.41,0,0,1,541,271.07Z" transform="translate(-72.67 -81.78)"/><rect class="cls-9" x="110.08" y="105.95" width="17.79" height="60.81"/><path class="cls-10" d="M127.53,235.32H255.76v81.26c0,10.23-12.55,18.59-27.88,18.59H155.41c-15.34,0-27.88-8.36-27.88-18.59Z" transform="translate(-72.67 -81.78)"/><path class="cls-11" d="M226.69,235.32h29.07v81.26c0,10.23-12.55,18.59-27.88,18.59H211.45c8.38,0,15.24-8.36,15.24-18.59Z" transform="translate(-72.67 -81.78)"/><path class="cls-12" d="M138.92,248.81H162v9.29h-23.1v-9.29Zm0,17.79H162v37.71h-23.1Z" transform="translate(-72.67 -81.78)"/><polygon class="cls-8" points="118.98 0 140.52 17.03 167.8 20.22 170.99 47.5 188.02 69.04 170.99 90.59 167.8 117.86 140.52 121.06 118.98 138.08 97.44 121.06 70.16 117.86 66.97 90.59 49.94 69.04 66.97 47.5 70.16 20.22 97.43 17.03 118.98 0"/><polygon class="cls-7" points="188.02 69.04 170.99 90.59 167.8 117.86 140.52 121.06 118.98 138.08 97.44 121.06 70.16 117.86 66.97 90.59 49.94 69.04 75.28 87.63 81.39 105.69 102.63 105.95 121.75 114.45 142.2 104.89 156.27 104.89 161.85 83.65 188.02 69.04"/><polygon class="cls-13" points="66.97 47.5 75.55 25.23 99.98 23.37 119.1 7.17 137.42 22.84 162.91 25.23 170.99 47.5 170.35 46.74 167.8 20.22 140.52 17.03 118.98 0 97.43 17.03 70.16 20.22 66.97 47.5"/><path class="cls-14" d="M186.19,113.91c1.14,0,2.16,1.85,2.79,4.69,2.45-1.56,4.47-2.15,5.28-1.34s.22,2.83-1.34,5.28c2.84.63,4.69,1.65,4.69,2.79s-1.85,2.16-4.69,2.79c1.56,2.45,2.15,4.48,1.34,5.29s-2.83.22-5.28-1.35c-.63,2.84-1.65,4.69-2.79,4.69s-2.16-1.85-2.79-4.69c-2.45,1.57-4.48,2.16-5.29,1.35s-.22-2.84,1.35-5.29c-2.84-.63-4.69-1.64-4.69-2.79s1.85-2.16,4.69-2.79c-1.57-2.45-2.16-4.47-1.35-5.28s2.84-.22,5.29,1.34C184,115.76,185,113.91,186.19,113.91Z" transform="translate(-72.67 -81.78)"/><path class="cls-15" d="M186.19,129.52a4.19,4.19,0,1,0-4.18-4.19A4.19,4.19,0,0,0,186.19,129.52Z" transform="translate(-72.67 -81.78)"/><path class="cls-14" d="M219.45,133.94c1.14,0,2.16,1.84,2.79,4.68,2.45-1.56,4.47-2.15,5.28-1.34s.23,2.83-1.34,5.29c2.84.62,4.69,1.64,4.69,2.78s-1.85,2.16-4.69,2.79c1.57,2.46,2.15,4.48,1.34,5.29s-2.83.22-5.28-1.34c-.63,2.84-1.65,4.68-2.79,4.68s-2.16-1.84-2.79-4.68c-2.45,1.56-4.48,2.15-5.29,1.34s-.22-2.83,1.34-5.29c-2.84-.63-4.68-1.64-4.68-2.79s1.84-2.16,4.68-2.78c-1.56-2.46-2.15-4.48-1.34-5.29s2.84-.22,5.29,1.34C217.29,135.78,218.3,133.94,219.45,133.94Z" transform="translate(-72.67 -81.78)"/><path class="cls-15" d="M219.45,149.54a4.19,4.19,0,1,0-4.18-4.19A4.19,4.19,0,0,0,219.45,149.54Z" transform="translate(-72.67 -81.78)"/><path class="cls-14" d="M189.64,163.24c1.15,0,2.16,1.84,2.79,4.69,2.45-1.57,4.47-2.16,5.28-1.35s.23,2.84-1.34,5.29c2.84.63,4.69,1.64,4.69,2.79s-1.85,2.16-4.69,2.79c1.57,2.45,2.15,4.47,1.34,5.28s-2.83.22-5.28-1.34c-.63,2.84-1.64,4.69-2.79,4.69s-2.16-1.85-2.79-4.69c-2.45,1.56-4.47,2.15-5.28,1.34s-.23-2.83,1.34-5.28c-2.84-.63-4.69-1.65-4.69-2.79s1.85-2.16,4.69-2.79c-1.57-2.45-2.15-4.48-1.34-5.29s2.83-.22,5.28,1.35C187.48,165.08,188.49,163.24,189.64,163.24Z" transform="translate(-72.67 -81.78)"/><path class="cls-15" d="M189.64,178.84a4.18,4.18,0,1,0-4.18-4.18A4.19,4.19,0,0,0,189.64,178.84Z" transform="translate(-72.67 -81.78)"/><path class="cls-14" d="M147.15,140.14c1.15,0,2.16,1.84,2.79,4.68,2.45-1.56,4.48-2.15,5.29-1.34s.22,2.83-1.35,5.29c2.84.63,4.69,1.64,4.69,2.79s-1.85,2.16-4.69,2.78c1.57,2.46,2.16,4.48,1.35,5.29s-2.84.22-5.29-1.34c-.63,2.84-1.64,4.68-2.79,4.68s-2.16-1.84-2.79-4.68c-2.45,1.56-4.47,2.15-5.28,1.34s-.23-2.83,1.34-5.29c-2.84-.62-4.69-1.64-4.69-2.78s1.85-2.16,4.69-2.79c-1.57-2.46-2.15-4.48-1.34-5.29s2.83-.22,5.28,1.34C145,142,146,140.14,147.15,140.14Z" transform="translate(-72.67 -81.78)"/><path class="cls-15" d="M147.15,155.74a4.19,4.19,0,1,0-4.18-4.18A4.19,4.19,0,0,0,147.15,155.74Z" transform="translate(-72.67 -81.78)"/><path class="cls-14" d="M237.45,97.39c1.15,0,2.17,1.85,2.79,4.69,2.46-1.57,4.48-2.16,5.29-1.35s.22,2.84-1.34,5.29c2.84.63,4.68,1.64,4.68,2.79S247,111,244.19,111.6c1.56,2.45,2.15,4.47,1.34,5.28s-2.83.23-5.29-1.34c-.62,2.84-1.64,4.69-2.79,4.69s-2.16-1.85-2.78-4.69c-2.46,1.57-4.48,2.15-5.29,1.34s-.22-2.83,1.34-5.28C227.88,111,226,110,226,108.81s1.84-2.16,4.68-2.79c-1.56-2.45-2.15-4.48-1.34-5.29s2.83-.22,5.29,1.35C235.29,99.24,236.31,97.39,237.45,97.39Z" transform="translate(-72.67 -81.78)"/><path class="cls-15" d="M237.46,113a4.18,4.18,0,1,0-4.19-4.18A4.19,4.19,0,0,0,237.46,113Z" transform="translate(-72.67 -81.78)"/><path class="cls-14" d="M238.33,182c1.15,0,2.16,1.85,2.79,4.69,2.45-1.56,4.47-2.15,5.28-1.34s.23,2.83-1.34,5.28c2.84.63,4.69,1.65,4.69,2.79s-1.85,2.16-4.69,2.79c1.57,2.46,2.15,4.48,1.34,5.29s-2.83.22-5.28-1.34c-.63,2.84-1.64,4.68-2.79,4.68s-2.16-1.84-2.79-4.68c-2.45,1.56-4.47,2.15-5.28,1.34s-.23-2.83,1.34-5.29c-2.84-.63-4.69-1.64-4.69-2.79s1.85-2.16,4.69-2.79c-1.57-2.45-2.15-4.47-1.34-5.28s2.83-.22,5.28,1.34C236.17,183.88,237.18,182,238.33,182Z" transform="translate(-72.67 -81.78)"/><path class="cls-15" d="M238.33,197.64a4.19,4.19,0,1,0-4.18-4.19A4.19,4.19,0,0,0,238.33,197.64Z" transform="translate(-72.67 -81.78)"/><path class="cls-14" d="M174.5,186.87c1.15,0,2.16,1.85,2.79,4.69,2.46-1.57,4.48-2.15,5.29-1.34s.22,2.83-1.34,5.28c2.84.63,4.68,1.65,4.68,2.79s-1.84,2.16-4.68,2.79c1.56,2.45,2.15,4.48,1.34,5.29s-2.83.22-5.29-1.35c-.63,2.84-1.64,4.69-2.79,4.69s-2.16-1.85-2.79-4.69c-2.45,1.57-4.47,2.16-5.28,1.35s-.22-2.84,1.34-5.29c-2.84-.63-4.68-1.64-4.68-2.79s1.84-2.16,4.68-2.79c-1.56-2.45-2.15-4.47-1.34-5.28s2.83-.23,5.28,1.34C172.34,188.72,173.36,186.87,174.5,186.87Z" transform="translate(-72.67 -81.78)"/><path class="cls-15" d="M174.5,202.47a4.18,4.18,0,1,0-4.18-4.18A4.19,4.19,0,0,0,174.5,202.47Z" transform="translate(-72.67 -81.78)"/><path class="cls-14" d="M155.23,89.88c1.15,0,2.16,1.85,2.79,4.69,2.45-1.57,4.48-2.15,5.29-1.34s.22,2.83-1.35,5.28c2.84.63,4.69,1.65,4.69,2.79s-1.85,2.16-4.69,2.79c1.57,2.45,2.15,4.48,1.35,5.29s-2.84.22-5.29-1.35c-.63,2.84-1.64,4.69-2.79,4.69s-2.16-1.85-2.79-4.69c-2.45,1.57-4.47,2.16-5.28,1.35s-.23-2.84,1.34-5.29c-2.84-.63-4.69-1.64-4.69-2.79s1.85-2.16,4.69-2.79c-1.57-2.45-2.15-4.47-1.34-5.28s2.83-.23,5.28,1.34C153.07,91.73,154.09,89.88,155.23,89.88Z" transform="translate(-72.67 -81.78)"/><path class="cls-15" d="M155.23,105.48a4.18,4.18,0,1,0-4.18-4.18A4.18,4.18,0,0,0,155.23,105.48Z" transform="translate(-72.67 -81.78)"/><path class="cls-16" d="M348.26,219.94c5.57,12.94,5.56,31.59-1.25,50.29s-18.79,33-31.36,39.33c-5.57-12.94-5.56-31.58,1.25-50.29S335.68,226.27,348.26,219.94Z" transform="translate(-72.67 -81.78)"/><path class="cls-17" d="M348.26,219.94c5.57,12.94,5.56,31.59-1.25,50.29s-18.79,33-31.36,39.33Z" transform="translate(-72.67 -81.78)"/><path class="cls-16" d="M315.65,214.19c9.65,10.25,16,27.78,16,47.69s-6.37,37.43-16,47.68c-9.66-10.25-16-27.78-16-47.68S306,224.44,315.65,214.19Z" transform="translate(-72.67 -81.78)"/><path class="cls-17" d="M315.65,214.19c9.65,10.25,16,27.78,16,47.69s-6.37,37.43-16,47.68Z" transform="translate(-72.67 -81.78)"/><path class="cls-16" d="M283,219.94c12.58,6.33,24.56,20.63,31.37,39.33s6.82,37.35,1.26,50.29c-12.59-6.33-24.56-20.62-31.37-39.33S277.46,232.88,283,219.94Z" transform="translate(-72.67 -81.78)"/><path class="cls-17" d="M283,219.94c12.58,6.33,24.56,20.63,31.37,39.33s6.82,37.35,1.26,50.29Z" transform="translate(-72.67 -81.78)"/><polygon class="cls-18" points="211.25 199.89 274.71 199.89 269.36 253.39 216.6 253.39 211.25 199.89"/><polygon class="cls-19" points="208.32 199.89 277.63 199.89 279.62 214.76 206.33 214.76 208.32 199.89"/></svg>